<svg width="16" height="16" viewBox="0 0 16 16" fill="none" xmlns="http://www.w3.org/2000/svg">
<circle cx="8" cy="8" r="7.5" fill="#F7931A"/>
<path d="M10.8 7.1c.2-1.2-.7-1.8-2-2.2l.4-1.6-.9-.2-.4 1.6c-.3 0-.5-.1-.7-.1L7.6 3l-.9-.2-.4 1.6c-.2 0-.4-.1-.6-.1l-1.3-.3-.3 1s.7.2.7.2c.4.1.4.3.4.5l-.5 1.9c0 0 .1 0 .1 0h-.1l-.6 2.6c0 .1-.2.3-.4.3 0 0-.7-.2-.7-.2l-.5 1.1 1.2.3c.2.1.4.1.7.1l-.4 1.7.9.2.4-1.6c.2.1.5.1.7.2l-.4 1.6.9.2.4-1.7c1.7.3 3 .2 3.5-1.3.4-1.2 0-1.9-.9-2.4.7-.1 1.2-.5 1.3-1.3zm-2.3 3.2c-.3 1.2-2.4.6-3 .4l.5-2.2c.7.2 2.8.5 2.5 1.8zm.3-3.2c-.3 1.1-2 .5-2.6.4l.5-2c.6.1 2.4.5 2.1 1.6z" fill="white"/>
</svg>
