<svg width="10" height="10" viewBox="0 0 10 10" fill="none" xmlns="http://www.w3.org/2000/svg">
<path d="M6.55542 7.27023C6.60542 7.15023 6.64542 7.03013 6.68542 6.92023C6.73542 6.77023 6.77542 6.62023 6.81542 6.49023C6.74542 6.72023 6.65542 6.99023 6.55542 7.27023Z" fill="black"/>
<path d="M9.15518 2.92779C8.84518 2.60779 8.32518 2.59779 8.00518 2.90779L7.46518 3.42779L8.29518 2.11779C8.54518 1.72779 8.42518 1.22779 8.04518 0.987786C7.66518 0.747786 7.15518 0.857786 6.91518 1.23779L6.35518 2.12779L6.81518 1.16779C7.00518 0.757786 6.83518 0.267786 6.42518 0.0777864C6.01518 -0.112214 5.53518 0.0577863 5.33518 0.457786L4.28518 2.64779V1.01779C4.28518 0.557786 3.91518 0.197786 3.46518 0.197786C3.01518 0.197786 2.64528 0.557786 2.64528 1.01779V3.30779C2.27528 3.43779 2.02528 3.76779 1.89528 4.16779C1.85528 4.29779 1.48528 5.29779 1.22528 5.86779L1.21528 5.88779L1.20538 5.91779C1.13538 6.17779 1.07538 6.58779 1.11538 6.99779C1.14538 7.39779 1.28538 7.86779 1.70538 8.14779C2.30538 8.54779 3.07538 8.92779 3.38538 9.07779H3.40538C3.57538 9.14779 3.83548 9.20779 4.13538 9.22779C4.42538 9.24779 4.78538 9.22779 5.12538 9.07779C5.82538 8.75779 6.58538 8.15779 6.87538 7.37779C6.97538 7.09779 7.06538 6.81779 7.13538 6.57779C7.22538 6.27779 7.33538 5.99779 7.48538 5.72779L7.55538 5.59779L9.13538 4.08779C9.46538 3.76789 9.47518 3.25779 9.15518 2.92779ZM8.90518 3.84769L7.29518 5.37769L7.28518 5.38769L7.27528 5.39769L7.19528 5.56769C7.11528 5.71769 7.03528 5.86769 6.97528 6.01769V6.02759C6.94528 6.09759 6.91528 6.15759 6.89528 6.22759C6.86528 6.31759 6.83528 6.39759 6.81528 6.48759C6.77528 6.61759 6.73528 6.76759 6.68528 6.91759C6.64528 7.02759 6.60528 7.14759 6.55528 7.26759C6.31528 7.92759 5.64528 8.46759 4.98528 8.76759C4.44528 9.00759 3.79528 8.86759 3.52528 8.76759C3.48528 8.74759 3.44528 8.72759 3.39528 8.70759C3.24528 8.62759 3.03528 8.52749 2.81528 8.40759C2.59528 8.28759 2.34528 8.14769 2.11528 8.00759C2.04528 7.96759 1.96528 7.91759 1.89528 7.86759C1.30528 7.48759 1.40518 6.46759 1.52528 6.00759C1.68528 5.66759 1.87528 5.17759 2.01528 4.80759C2.07528 4.65759 2.11528 4.52759 2.15528 4.43759C2.17528 4.38759 2.18528 4.34759 2.19528 4.31759C2.20528 4.29759 2.21528 4.27759 2.21528 4.26759C2.28528 4.05759 2.38528 3.88759 2.51528 3.77749C2.54528 3.73749 2.58528 3.70759 2.62528 3.68749C2.63528 3.68749 2.63528 3.67749 2.64528 3.67749H2.65518V3.98749C2.65518 4.08749 2.73518 4.15749 2.82518 4.15749C2.89518 4.15749 2.95518 4.11749 2.98518 4.04749C2.98518 4.02749 2.99518 4.00749 2.99518 3.98749L2.98518 3.58749V1.01779C2.98518 0.747786 3.19518 0.527686 3.46518 0.527686C3.73518 0.527686 3.95528 0.747686 3.95528 1.01779V3.77769C3.95528 3.77769 3.94528 3.78769 3.94528 3.79769C3.94528 3.80769 3.94528 3.81769 3.95528 3.82769C3.96518 3.85769 3.99528 3.87769 4.02528 3.87769C4.04528 3.87769 4.06528 3.86769 4.07528 3.85769C4.07528 3.84769 4.08528 3.84769 4.08528 3.83769V3.82779H4.09518L5.63518 0.607786C5.75518 0.367786 6.04518 0.267786 6.28518 0.377786C6.52528 0.487786 6.62518 0.777786 6.51518 1.01779L5.09518 3.98779C5.08528 3.99779 5.07518 4.00779 5.07518 4.01779L5.05518 4.06779H5.04518C5.03518 4.08779 5.03518 4.10779 5.03518 4.12779C5.03518 4.23779 5.12518 4.32779 5.23518 4.32779C5.28518 4.32779 5.34518 4.30779 5.37518 4.26779C5.39518 4.24779 5.40518 4.22779 5.41518 4.20779H5.42518V4.19779L7.19518 1.41779C7.34518 1.19779 7.64518 1.12779 7.86518 1.26779C8.09518 1.40779 8.16518 1.70779 8.01518 1.93779L6.34518 4.56779L6.33528 4.57779C6.32528 4.58769 6.32528 4.59779 6.31528 4.60779V4.61779C6.30528 4.63779 6.29528 4.66779 6.29528 4.68779C6.29528 4.76779 6.35528 4.83779 6.44528 4.83779C6.45528 4.83779 6.46528 4.83779 6.47528 4.82789C6.50528 4.82789 6.53528 4.80789 6.55528 4.78789C6.56528 4.76789 6.56528 4.75789 6.57528 4.74789V4.73789L8.23528 3.14789C8.42528 2.96779 8.73528 2.96779 8.91528 3.16789C9.10528 3.35789 9.09518 3.65769 8.90518 3.84769Z" fill="black"/>
<path d="M8.90533 3.84845L7.29533 5.37845L7.28533 5.38845L7.27543 5.39845L7.19543 5.56845C7.11543 5.71845 7.03543 5.86845 6.97543 6.01845V6.02835C6.94543 6.09835 6.91543 6.15835 6.89543 6.22835C6.86543 6.31835 6.83543 6.39835 6.81543 6.48835C6.74543 6.71835 6.65543 6.98835 6.55543 7.26835C6.31543 7.92835 5.64543 8.46835 4.98543 8.76835C4.44543 9.00835 3.79543 8.86835 3.52543 8.76835C3.48543 8.74835 3.44543 8.72835 3.39543 8.70835C3.24543 8.62835 3.03543 8.52825 2.81543 8.40835C2.59543 8.28835 2.34543 8.14845 2.11543 8.00835C2.04543 7.96835 1.96543 7.91835 1.89543 7.86835C1.30543 7.48835 1.40533 6.46835 1.52543 6.00835C1.68543 5.66835 1.87543 5.17835 2.01543 4.80835C2.07543 4.65835 2.11543 4.52835 2.15543 4.43835C2.17543 4.38835 2.18543 4.34835 2.19543 4.31835C2.20543 4.29835 2.21543 4.27835 2.21543 4.26835C2.28543 4.05835 2.38543 3.88835 2.51543 3.77825C2.54543 3.73825 2.58543 3.70835 2.62543 3.68825C2.63543 3.68825 2.63543 3.67825 2.64543 3.67825H2.65533V3.98825C2.65533 4.08825 2.73533 4.15825 2.82533 4.15825C2.89533 4.15825 2.95533 4.11825 2.98533 4.04825C2.98533 4.02825 2.99533 4.00825 2.99533 3.98825L2.98533 3.58825V1.01855C2.98533 0.748547 3.19533 0.528447 3.46533 0.528447C3.73533 0.528447 3.95543 0.748447 3.95543 1.01855V3.77845C3.95543 3.77845 3.94543 3.78845 3.94543 3.79845C3.94543 3.80845 3.94543 3.81845 3.95543 3.82845C3.96533 3.85845 3.99543 3.87845 4.02543 3.87845C4.04543 3.87845 4.06543 3.86845 4.07543 3.85845C4.07543 3.84845 4.08543 3.84845 4.08543 3.83845V3.82855H4.09533L5.63533 0.608547C5.75533 0.368547 6.04533 0.268547 6.28533 0.378547C6.52543 0.488547 6.62533 0.778547 6.51533 1.01855L5.09533 3.98855C5.08543 3.99855 5.07533 4.00855 5.07533 4.01855C5.05533 4.02845 5.04533 4.04855 5.05533 4.06855H5.04533C5.03533 4.08855 5.03533 4.10855 5.03533 4.12855C5.03533 4.23855 5.12533 4.32855 5.23533 4.32855C5.28533 4.32855 5.34533 4.30855 5.37533 4.26855C5.39533 4.24855 5.40533 4.22855 5.41533 4.20855H5.42533V4.19855L7.19533 1.41855C7.34533 1.19855 7.64533 1.12855 7.86533 1.26855C8.09533 1.40855 8.16533 1.70855 8.01533 1.93855L6.34533 4.56855L6.33543 4.57855C6.32543 4.58845 6.32543 4.59855 6.31543 4.60855V4.61855C6.30543 4.63855 6.29543 4.66855 6.29543 4.68855C6.29543 4.76855 6.35543 4.83855 6.44543 4.83855C6.45543 4.83855 6.46543 4.83855 6.47543 4.82865C6.50543 4.82865 6.53543 4.80865 6.55543 4.78865C6.56543 4.76865 6.56543 4.75865 6.57543 4.74865V4.73865L8.23543 3.14865C8.42543 2.96855 8.73543 2.96855 8.91543 3.16865C9.10543 3.35865 9.09533 3.65845 8.90533 3.84845Z" fill="#7CE660"/>
</svg>
