<svg width="32" height="32" viewBox="0 0 1024 1024" fill="none" xmlns="http://www.w3.org/2000/svg" style="shape-rendering:geometricPrecision;fill-rule:evenodd;clip-rule:evenodd">
  <defs>
    <linearGradient id="g" x1="0%" y1="0%" x2="100%" y2="100%">
      <stop offset="0%" stop-color="#ffffff"/>
      <stop offset="50%" stop-color="#e0e0e0"/>
      <stop offset="100%" stop-color="#ffffff"/>
    </linearGradient>
  </defs>
  <rect width="1024" height="1024" rx="192" fill="#0a0a0a"/>
  <g>
    <path fill="url(#g)" d="M 491.5,172.5 C 504.85,172.167 518.183,172.501 531.5,173.5C 578.5,250.833 625.5,328.167 672.5,405.5C 651.508,406.666 630.508,406.833 609.5,406C 576.208,352.584 543.041,299.084 510,245.5C 467.5,317.167 425,388.833 382.5,460.5C 489.833,461.167 597.167,461.833 704.5,462.5C 759.047,554.432 813.714,646.266 868.5,738C 860.092,752.815 851.425,767.482 842.5,782C 742.833,782.667 643.167,782.667 543.5,782C 542.84,764.239 542.84,746.406 543.5,728.5C 628.836,728.833 714.169,728.5 799.5,727.5C 758.046,657.417 715.712,587.917 672.5,519C 542.5,518.667 412.5,518.333 282.5,518C 322.962,452.248 362.795,386.081 402,319.5C 432.849,271.139 462.682,222.139 491.5,172.5 Z"/>
    <path fill="url(#g)" d="M 256.5,572.5 C 277.844,572.167 299.177,572.5 320.5,573.5C 287.842,624.339 256.175,675.839 225.5,728C 309.833,728.5 394.166,728.667 478.5,728.5C 478.5,746.5 478.5,764.5 478.5,782.5C 379.499,782.667 280.499,782.5 181.5,782C 172.291,767.748 162.958,753.581 153.5,739.5C 188.095,683.973 222.428,628.306 256.5,572.5 Z"/>
  </g>
</svg>
